<svg height="403pt" viewBox="0 -44 403.80587 403" width="403pt" xmlns="http://www.w3.org/2000/svg"><path d="m393.5 223.671875-68.632812-48.1875c-7.425782-5.214844-17.03125-5.859375-25.09375-1.671875-8.050782 4.183594-13.050782 12.421875-13.050782 21.5v38.78125c-28.566406-4.96875-54.589844-20.550781-72.21875-43.746094l-40.449218-53.226562 19.972656-26.273438c21.6875-28.546875 56.046875-45.585937 91.898437-45.585937h.796875v11.238281c-26.753906 2.523438-63.078125 11.636719-87.796875 53.5625-1.917969 3.246094-.835937 7.433594 2.410157 9.347656 1.089843.644532 2.285156.949219 3.460937.949219 2.335937 0 4.613281-1.203125 5.886719-3.363281 16.753906-28.417969 40.449218-42.855469 76.039062-46.632813v30.65625c0 9.070313 5.003906 17.3125 13.054688 21.496094 3.53125 1.835937 7.363281 2.742187 11.183594 2.742187 4.882812 0 9.738281-1.488281 13.90625-4.414062l68.636718-48.183594c6.453125-4.53125 10.300782-11.945312 10.300782-19.828125 0-7.882812-3.847657-15.296875-10.300782-19.828125l-68.636718-48.1875c-7.425782-5.214844-17.03125-5.855468-25.09375-1.667968-8.050782 4.183593-13.050782 12.417968-13.050782 21.496093v26.964844h-.796875c-40.09375 0-78.515625 19.058594-102.773437 50.976563l-17.671875 23.253906-7.292969-9.597656c-24.261719-31.921876-62.683594-50.976563-102.777344-50.976563h-48.582031c-3.773437 0-6.828125 3.054687-6.828125 6.824219 0 3.773437 3.054688 6.828125 6.828125 6.828125h48.582031c35.855469 0 70.210938 17.039062 91.902344 45.582031l9.589844 12.625-11.632813 15.304688-4.15625-5.46875c-18.078125-23.789063-44.046875-40.667969-73.125-47.527344-3.671875-.878906-7.347656 1.402344-8.210937 5.078125-.867188 3.664062 1.40625 7.34375 5.074218 8.210937 26 6.136719 49.226563 21.226563 65.390626 42.5l6.453124 8.488282-9.867187 12.984374c-21.6875 28.542969-56.046875 45.582032-91.898437 45.582032h-28.101563c-3.773437 0-6.828125 3.058594-6.828125 6.828125s3.054688 6.824219 6.828125 6.824219h28.101563c40.09375 0 78.515624-19.054688 102.773437-50.976563l7.570313-9.957031 41.292968 54.332031c5.613282 7.386719 12.03125 14.171875 19.066406 20.164063 1.289063 1.09375 2.859376 1.628906 4.425782 1.628906 1.929687 0 3.851562-.816406 5.199218-2.398438 2.449219-2.871094 2.101563-7.179687-.769531-9.625-6.292969-5.359375-12.03125-11.425781-17.050781-18.03125l-43.589844-57.351562 11.632813-15.308594 38.152343 50.199219c20.1875 26.570312 50.230469 44.195312 83.089844 49.296875v43.78125c0 9.074218 5.003906 17.316406 13.050782 21.5 3.535156 1.835937 7.367187 2.742187 11.183593 2.742187 4.882813 0 9.742188-1.488281 13.910157-4.414062l68.632812-48.1875c6.453125-4.527344 10.304688-11.941407 10.304688-19.824219s-3.851563-15.300781-10.304688-19.828125zm-93.125-199.027344c0-4.019531 2.128906-7.53125 5.695312-9.382812 1.570313-.816407 3.238282-1.222657 4.898438-1.222657 2.113281 0 4.207031.660157 6.050781 1.953126l68.632813 48.183593c2.859375 2.007813 4.5 5.160157 4.5 8.65625 0 3.492188-1.640625 6.644531-4.5 8.652344l-68.632813 48.183594c-3.296875 2.3125-7.386719 2.570312-10.949219.730469-3.566406-1.855469-5.695312-5.363282-5.695312-9.382813zm85.277344 227.507813-68.632813 48.183594c-3.296875 2.308593-7.386719 2.578124-10.949219.730468-3.566406-1.855468-5.695312-5.363281-5.695312-9.382812v-96.371094c0-4.019531 2.128906-7.53125 5.695312-9.386719 1.570313-.8125 3.238282-1.21875 4.898438-1.21875 2.113281 0 4.207031.65625 6.050781 1.949219l68.632813 48.1875c2.859375 2.007812 4.5 5.160156 4.5 8.652344 0 3.496094-1.640625 6.648437-4.5 8.65625zm0 0"/></svg>